<svg xmlns="http://www.w3.org/2000/svg" xmlns:xlink="http://www.w3.org/1999/xlink" width="152" zoomAndPan="magnify" viewBox="0 0 114 98.999996" height="132" preserveAspectRatio="xMidYMid meet" version="1.0"><defs><g/><clipPath id="48662f1d08"><path d="M 7.910156 0 L 105.613281 0 L 105.613281 97.703125 L 7.910156 97.703125 Z M 7.910156 0 " clip-rule="nonzero"/></clipPath><clipPath id="0d462a5fef"><path d="M 56.761719 0 C 29.78125 0 7.910156 21.871094 7.910156 48.851562 C 7.910156 75.832031 29.78125 97.703125 56.761719 97.703125 C 83.742188 97.703125 105.613281 75.832031 105.613281 48.851562 C 105.613281 21.871094 83.742188 0 56.761719 0 Z M 56.761719 0 " clip-rule="nonzero"/></clipPath><clipPath id="4cb52ab0ee"><path d="M 15 22 L 29 22 L 29 76 L 15 76 Z M 15 22 " clip-rule="nonzero"/></clipPath><clipPath id="ccce40da3d"><path d="M 0 48.851562 L 26.679688 22.171875 L 53.359375 48.851562 L 26.679688 75.53125 Z M 0 48.851562 " clip-rule="nonzero"/></clipPath><clipPath id="5ca353d1b8"><path d="M 0 48.851562 L 26.679688 22.171875 L 53.359375 48.851562 L 26.679688 75.53125 Z M 0 48.851562 " clip-rule="nonzero"/></clipPath><clipPath id="a1bcfc9957"><path d="M 84 22 L 98 22 L 98 76 L 84 76 Z M 84 22 " clip-rule="nonzero"/></clipPath><clipPath id="5016a5566a"><path d="M 86.726562 75.644531 L 60.046875 48.964844 L 86.726562 22.285156 L 113.40625 48.964844 Z M 86.726562 75.644531 " clip-rule="nonzero"/></clipPath><clipPath id="a45748ab7c"><path d="M 113.523438 48.851562 L 86.84375 22.171875 L 60.164062 48.851562 L 86.84375 75.53125 Z M 113.523438 48.851562 " clip-rule="nonzero"/></clipPath></defs><g clip-path="url(#48662f1d08)"><g clip-path="url(#0d462a5fef)"><path fill="#ebe8e4" d="M 7.910156 0 L 105.613281 0 L 105.613281 97.703125 L 7.910156 97.703125 Z M 7.910156 0 " fill-opacity="1" fill-rule="nonzero"/></g></g><g fill="#000000" fill-opacity="1"><g transform="translate(53.71845, 72.925378)"><g><path d="M 9.5625 -28.265625 C 9.800781 -28.265625 9.925781 -28.148438 9.9375 -27.921875 C 9.957031 -27.703125 9.847656 -27.5625 9.609375 -27.5 C 9.140625 -27.414062 8.6875 -27.359375 8.25 -27.328125 C 7.820312 -27.296875 7.476562 -27.144531 7.21875 -26.875 C 6.96875 -26.601562 6.84375 -26.066406 6.84375 -25.265625 L 6.84375 -2.234375 C 6.84375 -0.859375 6.535156 0.375 5.921875 1.46875 C 5.316406 2.570312 4.488281 3.46875 3.4375 4.15625 C 2.394531 4.84375 1.203125 5.257812 -0.140625 5.40625 C -0.585938 5.4375 -1.125 5.457031 -1.75 5.46875 C -2.375 5.488281 -2.925781 5.378906 -3.40625 5.140625 C -4.050781 4.816406 -4.40625 4.398438 -4.46875 3.890625 C -4.53125 3.378906 -4.375 2.957031 -4 2.625 C -3.625 2.300781 -3.15625 2.257812 -2.59375 2.5 C -2.207031 2.65625 -1.867188 2.890625 -1.578125 3.203125 C -1.296875 3.515625 -1.015625 3.800781 -0.734375 4.0625 C -0.453125 4.332031 -0.117188 4.46875 0.265625 4.46875 C 0.648438 4.46875 1.097656 4.273438 1.609375 3.890625 C 2.171875 3.296875 2.628906 2.46875 2.984375 1.40625 C 3.347656 0.351562 3.53125 -0.859375 3.53125 -2.234375 L 3.53125 -25.265625 C 3.53125 -26.066406 3.398438 -26.601562 3.140625 -26.875 C 2.890625 -27.144531 2.546875 -27.296875 2.109375 -27.328125 C 1.679688 -27.359375 1.21875 -27.414062 0.71875 -27.5 C 0.507812 -27.5625 0.410156 -27.703125 0.421875 -27.921875 C 0.441406 -28.148438 0.554688 -28.265625 0.765625 -28.265625 Z M 9.5625 -28.265625 "/></g></g></g><g fill="#000000" fill-opacity="1"><g transform="translate(43.390592, 56.549772)"><g><path d="M 13.28125 -28.265625 C 16.414062 -28.265625 19.097656 -27.753906 21.328125 -26.734375 C 23.566406 -25.722656 25.351562 -24.382812 26.6875 -22.71875 C 28.03125 -21.050781 28.925781 -19.222656 29.375 -17.234375 C 29.820312 -15.253906 29.820312 -13.265625 29.375 -11.265625 C 28.925781 -9.265625 28.03125 -7.429688 26.6875 -5.765625 C 25.351562 -4.097656 23.566406 -2.753906 21.328125 -1.734375 C 19.097656 -0.722656 16.414062 -0.21875 13.28125 -0.21875 L 1.296875 -0.21875 C 1.054688 -0.21875 0.9375 -0.328125 0.9375 -0.546875 C 0.9375 -0.773438 1.039062 -0.90625 1.25 -0.9375 C 1.757812 -1.03125 2.222656 -1.097656 2.640625 -1.140625 C 3.054688 -1.179688 3.390625 -1.335938 3.640625 -1.609375 C 3.898438 -1.878906 4.03125 -2.398438 4.03125 -3.171875 C 4.03125 -4.660156 4.03125 -6.359375 4.03125 -8.265625 C 4.03125 -10.179688 4.03125 -12.164062 4.03125 -14.21875 C 4.03125 -16.28125 4.03125 -18.269531 4.03125 -20.1875 C 4.03125 -22.113281 4.03125 -23.804688 4.03125 -25.265625 C 4.03125 -26.066406 3.898438 -26.601562 3.640625 -26.875 C 3.390625 -27.144531 3.054688 -27.296875 2.640625 -27.328125 C 2.222656 -27.359375 1.757812 -27.414062 1.25 -27.5 C 1.039062 -27.5625 0.9375 -27.703125 0.9375 -27.921875 C 0.9375 -28.148438 1.054688 -28.265625 1.296875 -28.265625 Z M 12.515625 -1.15625 C 15.171875 -1.15625 17.445312 -1.625 19.34375 -2.5625 C 21.238281 -3.507812 22.742188 -4.753906 23.859375 -6.296875 C 24.972656 -7.847656 25.71875 -9.554688 26.09375 -11.421875 C 26.46875 -13.285156 26.457031 -15.140625 26.0625 -16.984375 C 25.675781 -18.835938 24.914062 -20.539062 23.78125 -22.09375 C 22.65625 -23.644531 21.148438 -24.890625 19.265625 -25.828125 C 17.390625 -26.765625 15.140625 -27.234375 12.515625 -27.234375 L 9.34375 -27.234375 C 8.78125 -27.234375 8.300781 -27.113281 7.90625 -26.875 C 7.519531 -26.632812 7.328125 -26.128906 7.328125 -25.359375 L 7.328125 -3.078125 C 7.328125 -2.304688 7.53125 -1.789062 7.9375 -1.53125 C 8.34375 -1.28125 8.828125 -1.15625 9.390625 -1.15625 Z M 12.515625 -1.15625 "/></g></g></g><g fill="#000000" fill-opacity="1"><g transform="translate(39.364912, 89.612923)"><g><path d="M 1.828125 0.8125 C 1.546875 0.695312 1.316406 0.535156 1.140625 0.328125 C 0.960938 0.128906 0.851562 -0.0976562 0.8125 -0.359375 C 0.78125 -0.628906 0.816406 -0.898438 0.921875 -1.171875 L 1.5625 -2.71875 C 1.675781 -3 1.835938 -3.210938 2.046875 -3.359375 C 2.265625 -3.515625 2.507812 -3.601562 2.78125 -3.625 C 3.050781 -3.644531 3.328125 -3.597656 3.609375 -3.484375 C 3.898438 -3.359375 4.128906 -3.191406 4.296875 -2.984375 C 4.472656 -2.785156 4.582031 -2.5625 4.625 -2.3125 C 4.664062 -2.0625 4.632812 -1.8125 4.53125 -1.5625 L 4.515625 -1.546875 C 4.503906 -1.515625 4.484375 -1.492188 4.453125 -1.484375 C 4.429688 -1.484375 4.410156 -1.488281 4.390625 -1.5 L 3.984375 -1.65625 C 3.953125 -1.664062 3.929688 -1.679688 3.921875 -1.703125 C 3.921875 -1.722656 3.925781 -1.742188 3.9375 -1.765625 L 3.953125 -1.8125 C 4.046875 -2.050781 4.039062 -2.28125 3.9375 -2.5 C 3.84375 -2.71875 3.664062 -2.878906 3.40625 -2.984375 C 3.132812 -3.097656 2.882812 -3.109375 2.65625 -3.015625 C 2.425781 -2.929688 2.257812 -2.757812 2.15625 -2.5 L 1.5 -0.921875 C 1.394531 -0.660156 1.390625 -0.414062 1.484375 -0.1875 C 1.585938 0.03125 1.773438 0.191406 2.046875 0.296875 C 2.316406 0.410156 2.554688 0.429688 2.765625 0.359375 C 2.984375 0.296875 3.144531 0.140625 3.25 -0.109375 L 3.4375 -0.5625 C 3.445312 -0.582031 3.441406 -0.59375 3.421875 -0.59375 L 2.640625 -0.921875 C 2.609375 -0.929688 2.585938 -0.945312 2.578125 -0.96875 C 2.566406 -0.988281 2.566406 -1.007812 2.578125 -1.03125 L 2.703125 -1.359375 C 2.710938 -1.390625 2.726562 -1.40625 2.75 -1.40625 C 2.78125 -1.414062 2.8125 -1.414062 2.84375 -1.40625 L 4.140625 -0.875 C 4.160156 -0.863281 4.175781 -0.847656 4.1875 -0.828125 C 4.195312 -0.804688 4.195312 -0.78125 4.1875 -0.75 L 3.890625 -0.015625 C 3.691406 0.453125 3.410156 0.753906 3.046875 0.890625 C 2.679688 1.023438 2.273438 1 1.828125 0.8125 Z M 1.828125 0.8125 "/></g></g></g><g fill="#000000" fill-opacity="1"><g transform="translate(46.410539, 92.184983)"><g><path d="M 1.953125 0.484375 C 1.648438 0.410156 1.390625 0.285156 1.171875 0.109375 C 0.960938 -0.0664062 0.816406 -0.285156 0.734375 -0.546875 C 0.648438 -0.816406 0.640625 -1.097656 0.703125 -1.390625 L 1.015625 -2.90625 C 1.085938 -3.207031 1.210938 -3.457031 1.390625 -3.65625 C 1.578125 -3.851562 1.800781 -3.992188 2.0625 -4.078125 C 2.332031 -4.160156 2.617188 -4.164062 2.921875 -4.09375 C 3.242188 -4.03125 3.507812 -3.90625 3.71875 -3.71875 C 3.925781 -3.539062 4.070312 -3.320312 4.15625 -3.0625 C 4.238281 -2.8125 4.242188 -2.535156 4.171875 -2.234375 L 3.859375 -0.71875 C 3.796875 -0.425781 3.671875 -0.175781 3.484375 0.03125 C 3.304688 0.238281 3.085938 0.378906 2.828125 0.453125 C 2.566406 0.535156 2.273438 0.546875 1.953125 0.484375 Z M 2.0625 -0.046875 C 2.351562 0.015625 2.609375 -0.0234375 2.828125 -0.171875 C 3.046875 -0.316406 3.179688 -0.53125 3.234375 -0.8125 L 3.578125 -2.375 C 3.640625 -2.664062 3.597656 -2.914062 3.453125 -3.125 C 3.316406 -3.34375 3.101562 -3.484375 2.8125 -3.546875 C 2.53125 -3.609375 2.28125 -3.566406 2.0625 -3.421875 C 1.851562 -3.285156 1.71875 -3.070312 1.65625 -2.78125 L 1.3125 -1.21875 C 1.257812 -0.9375 1.300781 -0.6875 1.4375 -0.46875 C 1.570312 -0.25 1.78125 -0.109375 2.0625 -0.046875 Z M 2.0625 -0.046875 "/></g></g></g><g fill="#000000" fill-opacity="1"><g transform="translate(53.963914, 93.485346)"><g><path d="M 1.46875 0 C 1.40625 0 1.367188 -0.0234375 1.359375 -0.078125 L 0.15625 -4.4375 C 0.15625 -4.445312 0.15625 -4.460938 0.15625 -4.484375 C 0.15625 -4.523438 0.179688 -4.546875 0.234375 -4.546875 L 0.703125 -4.546875 C 0.753906 -4.546875 0.789062 -4.519531 0.8125 -4.46875 L 1.65625 -1.265625 C 1.65625 -1.253906 1.660156 -1.25 1.671875 -1.25 C 1.679688 -1.25 1.6875 -1.253906 1.6875 -1.265625 L 2.484375 -4.46875 C 2.492188 -4.519531 2.53125 -4.546875 2.59375 -4.546875 L 3.046875 -4.546875 C 3.109375 -4.546875 3.144531 -4.519531 3.15625 -4.46875 L 3.984375 -1.265625 C 3.992188 -1.253906 4.003906 -1.25 4.015625 -1.25 C 4.023438 -1.25 4.03125 -1.253906 4.03125 -1.265625 L 4.875 -4.453125 C 4.882812 -4.503906 4.921875 -4.53125 4.984375 -4.53125 L 5.421875 -4.53125 C 5.453125 -4.53125 5.472656 -4.519531 5.484375 -4.5 C 5.503906 -4.476562 5.507812 -4.453125 5.5 -4.421875 L 4.328125 -0.078125 C 4.316406 -0.0234375 4.285156 0 4.234375 0 L 3.78125 0 C 3.726562 0 3.691406 -0.0234375 3.671875 -0.078125 L 2.84375 -3.40625 C 2.832031 -3.414062 2.820312 -3.421875 2.8125 -3.421875 C 2.8125 -3.421875 2.804688 -3.414062 2.796875 -3.40625 L 1.984375 -0.078125 C 1.972656 -0.0234375 1.941406 0 1.890625 0 Z M 1.46875 0 "/></g></g></g><g fill="#000000" fill-opacity="1"><g transform="translate(63.211414, 93.044125)"><g><path d="M 0.609375 -0.125 C 0.578125 -0.125 0.550781 -0.128906 0.53125 -0.140625 C 0.507812 -0.148438 0.5 -0.171875 0.5 -0.203125 L -0.390625 -4.46875 C -0.398438 -4.5 -0.394531 -4.523438 -0.375 -4.546875 C -0.363281 -4.566406 -0.34375 -4.578125 -0.3125 -4.578125 L 1.203125 -4.890625 C 1.640625 -4.984375 2.015625 -4.941406 2.328125 -4.765625 C 2.640625 -4.597656 2.835938 -4.320312 2.921875 -3.9375 L 3.3125 -2.015625 C 3.394531 -1.628906 3.328125 -1.289062 3.109375 -1 C 2.890625 -0.71875 2.5625 -0.53125 2.125 -0.4375 Z M 1 -0.796875 C 1.007812 -0.773438 1.023438 -0.765625 1.046875 -0.765625 L 2.046875 -0.984375 C 2.296875 -1.035156 2.472656 -1.148438 2.578125 -1.328125 C 2.691406 -1.503906 2.726562 -1.71875 2.6875 -1.96875 L 2.328125 -3.703125 C 2.273438 -3.953125 2.160156 -4.140625 1.984375 -4.265625 C 1.804688 -4.398438 1.59375 -4.441406 1.34375 -4.390625 L 0.34375 -4.171875 C 0.320312 -4.171875 0.3125 -4.160156 0.3125 -4.140625 Z M 1 -0.796875 "/></g></g></g><g fill="#000000" fill-opacity="1"><g transform="translate(70.56155, 91.181323)"><g><path d="M 3.078125 -1.265625 C 3.015625 -1.242188 2.96875 -1.257812 2.9375 -1.3125 L 2.453125 -1.890625 C 2.441406 -1.890625 2.429688 -1.890625 2.421875 -1.890625 L 0.734375 -1.203125 C 0.734375 -1.191406 0.726562 -1.179688 0.71875 -1.171875 L 0.78125 -0.40625 C 0.78125 -0.351562 0.753906 -0.316406 0.703125 -0.296875 L 0.28125 -0.125 C 0.207031 -0.09375 0.171875 -0.113281 0.171875 -0.1875 L -0.203125 -4.75 C -0.203125 -4.800781 -0.175781 -4.835938 -0.125 -4.859375 L 0.4375 -5.09375 C 0.476562 -5.113281 0.519531 -5.101562 0.5625 -5.0625 L 3.53125 -1.578125 C 3.539062 -1.578125 3.546875 -1.570312 3.546875 -1.5625 C 3.566406 -1.507812 3.554688 -1.472656 3.515625 -1.453125 Z M 0.671875 -1.734375 C 0.671875 -1.722656 0.679688 -1.722656 0.703125 -1.734375 L 2.078125 -2.296875 C 2.097656 -2.304688 2.097656 -2.316406 2.078125 -2.328125 L 0.453125 -4.296875 C 0.441406 -4.304688 0.429688 -4.3125 0.421875 -4.3125 C 0.421875 -4.3125 0.414062 -4.300781 0.40625 -4.28125 Z M 0.671875 -1.734375 "/></g></g></g><g clip-path="url(#4cb52ab0ee)"><g clip-path="url(#ccce40da3d)"><g clip-path="url(#5ca353d1b8)"><path fill="#000000" d="M 26.808594 75.632812 L 28.652344 73.789062 C 14.90625 60.046875 14.90625 37.679688 28.652344 23.933594 L 26.808594 22.089844 C 12.027344 36.824219 12.027344 60.851562 26.808594 75.632812 Z M 26.808594 75.632812 " fill-opacity="1" fill-rule="nonzero"/></g></g></g><g clip-path="url(#a1bcfc9957)"><g clip-path="url(#5016a5566a)"><g clip-path="url(#a45748ab7c)"><path fill="#000000" d="M 86.714844 75.632812 L 84.871094 73.789062 C 98.613281 60.046875 98.613281 37.679688 84.871094 23.933594 L 86.714844 22.089844 C 101.496094 36.824219 101.496094 60.851562 86.714844 75.632812 Z M 86.714844 75.632812 " fill-opacity="1" fill-rule="nonzero"/></g></g></g><g fill="#000000" fill-opacity="1"><g transform="translate(39.871132, 18.037302)"><g><path d="M 0.5625 -0.265625 C 0.539062 -0.242188 0.519531 -0.238281 0.5 -0.25 C 0.476562 -0.257812 0.457031 -0.273438 0.4375 -0.296875 L -1.375 -4.265625 C -1.382812 -4.296875 -1.382812 -4.316406 -1.375 -4.328125 C -1.375 -4.347656 -1.363281 -4.367188 -1.34375 -4.390625 L 0.0625 -5.03125 C 0.46875 -5.21875 0.84375 -5.265625 1.1875 -5.171875 C 1.539062 -5.078125 1.800781 -4.847656 1.96875 -4.484375 L 2.78125 -2.703125 C 2.945312 -2.347656 2.953125 -2.003906 2.796875 -1.671875 C 2.648438 -1.347656 2.375 -1.09375 1.96875 -0.90625 Z M 0.8125 -1.015625 C 0.8125 -0.992188 0.820312 -0.988281 0.84375 -1 L 1.765625 -1.421875 C 1.992188 -1.523438 2.140625 -1.675781 2.203125 -1.875 C 2.273438 -2.070312 2.265625 -2.289062 2.171875 -2.53125 L 1.4375 -4.140625 C 1.320312 -4.367188 1.164062 -4.523438 0.96875 -4.609375 C 0.769531 -4.691406 0.554688 -4.679688 0.328125 -4.578125 L -0.59375 -4.15625 C -0.613281 -4.144531 -0.625 -4.128906 -0.625 -4.109375 Z M 0.8125 -1.015625 "/></g></g></g><g fill="#000000" fill-opacity="1"><g transform="translate(46.060074, 15.469535)"><g><path d="M 2.453125 -4.859375 C 2.453125 -4.828125 2.441406 -4.800781 2.421875 -4.78125 C 2.410156 -4.757812 2.390625 -4.742188 2.359375 -4.734375 L 0.171875 -4.1875 C 0.148438 -4.175781 0.144531 -4.160156 0.15625 -4.140625 L 0.484375 -2.796875 C 0.492188 -2.773438 0.507812 -2.769531 0.53125 -2.78125 L 2.03125 -3.15625 C 2.0625 -3.164062 2.082031 -3.160156 2.09375 -3.140625 C 2.113281 -3.128906 2.125 -3.109375 2.125 -3.078125 L 2.21875 -2.75 C 2.21875 -2.71875 2.210938 -2.691406 2.203125 -2.671875 C 2.203125 -2.648438 2.1875 -2.632812 2.15625 -2.625 L 0.65625 -2.25 C 0.632812 -2.238281 0.628906 -2.222656 0.640625 -2.203125 L 0.984375 -0.84375 C 0.984375 -0.820312 0.992188 -0.816406 1.015625 -0.828125 L 3.203125 -1.375 C 3.234375 -1.382812 3.257812 -1.378906 3.28125 -1.359375 C 3.3125 -1.347656 3.332031 -1.328125 3.34375 -1.296875 L 3.4375 -0.96875 C 3.4375 -0.9375 3.425781 -0.910156 3.40625 -0.890625 C 3.394531 -0.867188 3.375 -0.851562 3.34375 -0.84375 L 0.609375 -0.15625 C 0.578125 -0.144531 0.550781 -0.144531 0.53125 -0.15625 C 0.507812 -0.164062 0.5 -0.1875 0.5 -0.21875 L -0.578125 -4.4375 C -0.578125 -4.46875 -0.570312 -4.492188 -0.5625 -4.515625 C -0.550781 -4.535156 -0.53125 -4.550781 -0.5 -4.5625 L 2.234375 -5.25 C 2.265625 -5.257812 2.289062 -5.257812 2.3125 -5.25 C 2.34375 -5.238281 2.359375 -5.21875 2.359375 -5.1875 Z M 2.453125 -4.859375 "/></g></g></g><g fill="#000000" fill-opacity="1"><g transform="translate(52.489584, 14.098069)"><g><path d="M 1.703125 -0.109375 C 1.648438 -0.109375 1.613281 -0.132812 1.59375 -0.1875 L -0.0625 -4.4375 C -0.0703125 -4.445312 -0.078125 -4.460938 -0.078125 -4.484375 C -0.078125 -4.523438 -0.046875 -4.546875 0.015625 -4.546875 L 0.46875 -4.578125 C 0.5 -4.578125 0.523438 -4.570312 0.546875 -4.5625 C 0.566406 -4.550781 0.578125 -4.535156 0.578125 -4.515625 L 1.875 -1.046875 C 1.882812 -1.023438 1.890625 -1.015625 1.890625 -1.015625 C 1.898438 -1.015625 1.910156 -1.023438 1.921875 -1.046875 L 2.75 -4.65625 C 2.75 -4.675781 2.757812 -4.691406 2.78125 -4.703125 C 2.800781 -4.722656 2.828125 -4.734375 2.859375 -4.734375 L 3.296875 -4.765625 C 3.367188 -4.765625 3.398438 -4.726562 3.390625 -4.65625 L 2.296875 -0.234375 C 2.273438 -0.171875 2.238281 -0.140625 2.1875 -0.140625 Z M 1.703125 -0.109375 "/></g></g></g><g fill="#000000" fill-opacity="1"><g transform="translate(59.144166, 13.961965)"><g><path d="M 0.625 0.0625 C 0.59375 0.0507812 0.566406 0.0351562 0.546875 0.015625 C 0.535156 0.00390625 0.535156 -0.015625 0.546875 -0.046875 L 0.921875 -4.390625 C 0.929688 -4.421875 0.941406 -4.441406 0.953125 -4.453125 C 0.972656 -4.472656 1 -4.476562 1.03125 -4.46875 L 1.46875 -4.4375 C 1.5 -4.4375 1.519531 -4.425781 1.53125 -4.40625 C 1.550781 -4.382812 1.554688 -4.359375 1.546875 -4.328125 L 1.171875 0.015625 C 1.160156 0.046875 1.144531 0.0664062 1.125 0.078125 C 1.113281 0.0859375 1.09375 0.09375 1.0625 0.09375 Z M 0.625 0.0625 "/></g></g></g><g fill="#000000" fill-opacity="1"><g transform="translate(63.55864, 14.478818)"><g><path d="M 0.609375 0.15625 C 0.578125 0.144531 0.554688 0.128906 0.546875 0.109375 C 0.535156 0.0859375 0.53125 0.0625 0.53125 0.03125 L 1.59375 -4.203125 C 1.59375 -4.222656 1.601562 -4.238281 1.625 -4.25 C 1.644531 -4.257812 1.671875 -4.257812 1.703125 -4.25 L 2.125 -4.15625 C 2.15625 -4.144531 2.175781 -4.128906 2.1875 -4.109375 C 2.195312 -4.085938 2.203125 -4.066406 2.203125 -4.046875 L 1.703125 -2.0625 C 1.703125 -2.050781 1.707031 -2.039062 1.71875 -2.03125 C 1.726562 -2.03125 1.738281 -2.03125 1.75 -2.03125 L 4.015625 -3.625 C 4.054688 -3.644531 4.101562 -3.648438 4.15625 -3.640625 L 4.625 -3.53125 C 4.675781 -3.519531 4.695312 -3.5 4.6875 -3.46875 C 4.6875 -3.457031 4.675781 -3.441406 4.65625 -3.421875 L 2.765625 -2.03125 C 2.753906 -2.019531 2.75 -2.003906 2.75 -1.984375 L 3.734375 0.8125 C 3.734375 0.820312 3.734375 0.835938 3.734375 0.859375 C 3.722656 0.898438 3.691406 0.914062 3.640625 0.90625 L 3.171875 0.78125 C 3.117188 0.769531 3.082031 0.738281 3.0625 0.6875 L 2.21875 -1.671875 C 2.21875 -1.703125 2.207031 -1.710938 2.1875 -1.703125 L 1.515625 -1.234375 C 1.503906 -1.222656 1.492188 -1.207031 1.484375 -1.1875 L 1.140625 0.1875 C 1.140625 0.21875 1.128906 0.238281 1.109375 0.25 C 1.085938 0.257812 1.0625 0.257812 1.03125 0.25 Z M 0.609375 0.15625 "/></g></g></g><g fill="#000000" fill-opacity="1"><g transform="translate(69.980044, 16.327574)"><g><path d="M 3.03125 1.390625 C 2.96875 1.359375 2.941406 1.316406 2.953125 1.265625 L 3.0625 0.515625 C 3.050781 0.492188 3.039062 0.484375 3.03125 0.484375 L 1.375 -0.28125 C 1.363281 -0.28125 1.359375 -0.273438 1.359375 -0.265625 L 0.828125 0.28125 C 0.785156 0.332031 0.742188 0.34375 0.703125 0.3125 L 0.28125 0.125 C 0.207031 0.09375 0.203125 0.0507812 0.265625 0 L 3.34375 -3.390625 C 3.375 -3.429688 3.414062 -3.441406 3.46875 -3.421875 L 4.015625 -3.15625 C 4.066406 -3.132812 4.09375 -3.097656 4.09375 -3.046875 L 3.5625 1.515625 C 3.5625 1.523438 3.554688 1.53125 3.546875 1.53125 C 3.523438 1.582031 3.492188 1.597656 3.453125 1.578125 Z M 1.734375 -0.703125 C 1.710938 -0.679688 1.707031 -0.664062 1.71875 -0.65625 L 3.078125 -0.046875 C 3.109375 -0.0351562 3.125 -0.0390625 3.125 -0.0625 L 3.453125 -2.59375 C 3.453125 -2.601562 3.445312 -2.609375 3.4375 -2.609375 C 3.4375 -2.617188 3.425781 -2.617188 3.40625 -2.609375 Z M 1.734375 -0.703125 "/></g></g></g></svg>